<?xml version="1.0" encoding="UTF-8"?>
<svg width="5923px" height="791px" viewBox="0 0 5923 791" version="1.1" xmlns="http://www.w3.org/2000/svg" xmlns:xlink="http://www.w3.org/1999/xlink">
    <!-- Generator: Sketch 64 (93537) - https://sketch.com -->
    <title>Untitled 5</title>
    <desc>Created with Sketch.</desc>
    <g id="Page-1" stroke="none" stroke-width="1" fill="none" fill-rule="evenodd">
        <g id="noun_async_2820875" transform="translate(0.000000, 47.000000)" fill-rule="nonzero">
            <path d="M360.527554,532.799998 C339.11749,531.322062 318.219462,525.581497 299.062814,515.915997 C292.622302,511.131421 283.951489,510.628689 277.000195,514.636812 C270.048901,518.644935 266.147045,526.39708 267.072042,534.361908 C267.997039,542.326735 273.571919,548.980417 281.257153,551.291999 C305.033252,563.56032 331.030122,570.941783 357.710839,573 C362.539493,573 367.26755,573 371.89501,573 C458.930905,572.955706 536.069957,517.005449 563.06468,434.341408 C590.059403,351.677367 560.788347,261.04483 490.523756,209.731541 C420.259165,158.418252 324.934567,158.060253 254.285801,208.844332 C183.637035,259.62841 153.684747,350.038529 180.056615,432.902992 L159.031852,424.460992 C148.826867,420.734039 137.503509,425.775195 133.454117,435.848192 C129.404725,445.92119 134.092421,457.386463 144.042905,461.746494 L212.247641,489.182995 C214.624494,490.094198 217.146044,490.570788 219.691816,490.589995 C227.911998,490.614414 235.320304,485.640512 238.40285,478.027495 L265.865819,409.787991 C268.813522,403.073688 267.867993,395.288562 263.398542,389.47336 C258.929092,383.658159 251.644813,380.735487 244.390833,381.846894 C237.136854,382.958301 231.064043,387.927458 228.544348,394.81349 L218.484653,420.239991 C195.787537,347.669824 227.068524,269.135907 293.468521,231.985802 C359.868518,194.835698 443.238609,209.223534 493.315536,266.474983 C536.341362,315.547736 545.426065,385.727698 516.311567,444.120929 C487.197068,502.514159 425.653777,537.54729 360.527554,532.799998 Z" id="Path" fill="#6236FF"></path>
            <path d="M719.932176,575.263635 L679.717004,580.994269 C786.965658,423.090766 757.291736,209.637554 611.039242,86.9750236 C464.786748,-35.6875069 249.426133,-27.7457068 112.605474,105.355642 C-24.2151845,238.456991 -38.0868105,453.516021 80.5007797,603.091417 C199.08837,752.666813 411.644166,788.209582 572.443033,685.352122 C578.55433,681.488598 582.120865,674.641505 581.78396,667.419254 C581.447054,660.197004 577.258585,653.711665 570.814156,650.433837 C564.369727,647.156009 556.66164,647.590407 550.626302,651.571545 C407.405658,743.631758 217.746756,712.340797 111.68908,579.153288 C5.63140281,445.965778 17.603385,254.117037 139.396446,135.148009 C261.189506,16.1789816 453.267193,8.70938307 583.931583,117.860738 C714.595974,227.012093 741.430806,417.351699 646.036797,558.373347 L639.903984,515.041714 C638.898259,507.858001 634.136447,501.756521 627.412276,499.035643 C620.688104,496.314766 613.023136,497.387856 607.304689,501.850691 C601.586243,506.313527 598.683087,513.488097 599.688812,520.67181 L612.457129,611.155498 C613.869678,621.149246 622.472073,628.547269 632.564715,628.447936 L635.379777,628.447936 L725.160148,615.78022 C732.343897,614.79246 738.454988,610.047266 741.191433,603.332108 C743.927877,596.61695 742.873944,588.952019 738.42664,583.224621 C733.979335,577.497223 726.814311,574.577487 719.630562,575.565248 L719.932176,575.263635 Z" id="Path" fill="#0091FF"></path>
        </g>
        <text id="async-selector-kit" fill="#6236FF" font-family="SFProDisplay-Bold, SF Pro Display" font-size="570" font-weight="bold">
            <tspan x="791" y="622">async-selector-kit</tspan>
        </text>
    </g>
</svg>